<svg width="341" height="513" viewBox="0 0 341 513" fill="none" xmlns="http://www.w3.org/2000/svg">
<path d="M274.476 478.527C216.752 464.751 173.642 446.293 149.495 392.083C124.054 334.969 183.362 296.011 175.081 234.039C161.497 132.375 2.25621 122.206 20.9756 21.3613C31.767 -36.7738 59.2427 -69.2967 108.272 -102.346C178.127 -149.431 244.299 -144.32 323.567 -115.803C446.073 -71.7299 499.821 35.4596 502.279 165.629C505.132 316.75 421.495 513.614 274.476 478.527Z" stroke="#E1DFD6"/>
<path d="M292.31 386.914C251.56 377.189 221.127 364.159 204.08 325.889C186.12 285.569 227.989 258.067 222.143 214.318C212.553 142.548 100.137 135.37 113.352 64.1782C120.97 23.1377 140.366 0.178163 174.979 -23.1527C224.292 -56.3929 271.006 -52.7846 326.966 -32.6527C413.449 -1.53953 451.393 74.1309 453.128 166.024C455.142 272.708 396.098 411.684 292.31 386.914Z" fill="#E9E7E0"/>
</svg>
